<svg width="48" height="48" viewBox="0 0 48 48" fill="none" xmlns="http://www.w3.org/2000/svg">
<g clip-path="url(#clip0_71_246)">
<path d="M43.5 5H4.5C3.30653 5 2.16193 5.47411 1.31802 6.31802C0.474106 7.16193 0 8.30653 0 9.5L0 38.5C0 39.6935 0.474106 40.8381 1.31802 41.682C2.16193 42.5259 3.30653 43 4.5 43H43.5C44.6935 43 45.8381 42.5259 46.682 41.682C47.5259 40.8381 48 39.6935 48 38.5V9.5C48 8.30653 47.5259 7.16193 46.682 6.31802C45.8381 5.47411 44.6935 5 43.5 5ZM8.5 40H4.5C4.10379 39.9948 3.72526 39.8351 3.44507 39.5549C3.16488 39.2747 3.00518 38.8962 3 38.5V18L8.5 22.28V40ZM45 38.5C44.9948 38.8962 44.8351 39.2747 44.5549 39.5549C44.2747 39.8351 43.8962 39.9948 43.5 40H39.5V22.34L45 18V38.5ZM45 14.26L25.54 29.4C25.0989 29.7406 24.5573 29.9253 24 29.9253C23.4427 29.9253 22.9011 29.7406 22.46 29.4L3 14.26V9.5C2.98159 9.17537 3.06916 8.85355 3.24952 8.58301C3.42988 8.31247 3.69326 8.10786 4 8L23 22.62C23.2631 22.8243 23.5868 22.9353 23.92 22.9353C24.2532 22.9353 24.5769 22.8243 24.84 22.62L44 8C44.3116 8.09088 44.5853 8.28036 44.78 8.54C44.9747 8.79964 45.08 9.11544 45.08 9.44L45 14.26Z" fill="black"/>
</g>
<defs>
<clipPath id="clip0_71_246">
<rect width="48" height="48" fill="white"/>
</clipPath>
</defs>
</svg>
