<svg width="62" height="61" viewBox="0 0 62 61" fill="none" xmlns="http://www.w3.org/2000/svg">
<path d="M61.0236 30.0879C60.7518 13.471 46.9808 0.221706 30.2657 0.495138C13.5506 0.76857 0.220362 14.4612 0.492188 31.0781C0.723004 45.1882 10.6889 56.8685 23.9246 59.9048L23.5973 39.8975L17.3565 39.9996L17.2061 30.8047L23.4469 30.7026L23.3821 26.7407C23.2146 16.4999 27.7991 11.677 37.9126 11.5116C39.8303 11.4802 43.1451 11.8004 44.5046 12.1513L44.641 20.4857C43.9255 20.4227 42.684 20.4057 41.1428 20.4309C36.1805 20.5121 34.2934 22.4125 34.3729 27.2711L34.4261 30.523L44.3121 30.3613L42.764 39.584L34.5765 39.7179L34.9147 60.3907C49.8692 58.3463 61.2752 45.4713 61.0236 30.0879Z" fill="white"/>
</svg>
