<svg width="24" height="24" viewBox="0 0 24 24" fill="none" xmlns="http://www.w3.org/2000/svg">
<g clip-path="url(#clip0_199_56)">
<path fill-rule="evenodd" clip-rule="evenodd" d="M23.1574 0.952178C23.7497 1.60505 23.7005 2.61443 23.0477 3.20667C19.8892 6.07185 17.6772 8.50143 15.8369 11.3738C13.9903 14.2561 12.4744 17.6521 10.7868 22.5C10.6047 23.023 10.1646 23.4142 9.62386 23.5337C9.08316 23.6532 8.51914 23.4838 8.13363 23.0863L0.878837 15.6048C0.2652 14.972 0.280745 13.9615 0.913558 13.3479C1.54637 12.7343 2.55682 12.7498 3.17045 13.3826L8.64574 19.0291C10.0592 15.261 11.4576 12.2919 13.1491 9.65181C15.1935 6.46076 17.6225 3.81824 20.903 0.8424C21.5558 0.250152 22.5652 0.299302 23.1574 0.952178Z" fill="url(#paint0_linear_199_56)"/>
</g>
<defs>
<linearGradient id="paint0_linear_199_56" x1="4.21202" y1="4.87883" x2="22.9029" y2="15.2348" gradientUnits="userSpaceOnUse">
<stop stop-color="#FFC700"/>
<stop offset="1" stop-color="#02BE6F"/>
</linearGradient>
<clipPath id="clip0_199_56">
<rect width="24" height="24" fill="white"/>
</clipPath>
</defs>
</svg>
