<svg width="48" height="48" viewBox="0 0 48 48" fill="none" xmlns="http://www.w3.org/2000/svg">
<path d="M17.5 9H37.5C37.5 9 39 9 39 10.5V12.5C39 12.5 39 14 37.5 14H17.5C17.5 14 16 14 16 12.5V10.5C16 10.5 16 9 17.5 9Z" fill="black"/>
<path d="M17.5 18H37.5C37.5 18 39 18 39 19.5V21.5C39 21.5 39 23 37.5 23H17.5C17.5 23 16 23 16 21.5V19.5C16 19.5 16 18 17.5 18Z" fill="black"/>
<path d="M17.5 27H27.5C27.5 27 29 27 29 28.5V30.5C29 30.5 29 32 27.5 32H17.5C17.5 32 16 32 16 30.5V28.5C16 28.5 16 27 17.5 27Z" fill="black"/>
<path d="M44 0H11C9.93913 0 8.92172 0.421427 8.17157 1.17157C7.42143 1.92172 7 2.93913 7 4V37C7 38.0609 7.42143 39.0783 8.17157 39.8284C8.92172 40.5786 9.93913 41 11 41H44C45.0609 41 46.0783 40.5786 46.8284 39.8284C47.5786 39.0783 48 38.0609 48 37V4C48 2.93913 47.5786 1.92172 46.8284 1.17157C46.0783 0.421427 45.0609 0 44 0ZM43.72 36.7C43.5247 36.8846 43.2686 36.9913 43 37H12C11.7348 37 11.4804 36.8946 11.2929 36.7071C11.1054 36.5196 11 36.2652 11 36V5C11 4.73478 11.1054 4.48043 11.2929 4.29289C11.4804 4.10536 11.7348 4 12 4H43C43.2652 4 43.5196 4.10536 43.7071 4.29289C43.8946 4.48043 44 4.73478 44 5V36C44.0016 36.2609 43.9011 36.5121 43.72 36.7Z" fill="black"/>
<path d="M39 44H5C4.73478 44 4.48043 43.8946 4.29289 43.7071C4.10536 43.5196 4 43.2652 4 43V9C4 8.46957 3.78929 7.96086 3.41421 7.58579C3.03914 7.21071 2.53043 7 2 7C1.46957 7 0.960859 7.21071 0.585786 7.58579C0.210714 7.96086 0 8.46957 0 9L0 44C0 45.0609 0.421427 46.0783 1.17157 46.8284C1.92172 47.5786 2.93913 48 4 48H39C39.5304 48 40.0391 47.7893 40.4142 47.4142C40.7893 47.0391 41 46.5304 41 46C41 45.4696 40.7893 44.9609 40.4142 44.5858C40.0391 44.2107 39.5304 44 39 44Z" fill="black"/>
</svg>
