<svg width="24" height="20" viewBox="0 0 24 20" fill="none" xmlns="http://www.w3.org/2000/svg">
<path d="M1.5 0.5H22.5C22.5 0.5 23.5 0.5 23.5 1.5V2.5C23.5 2.5 23.5 3.5 22.5 3.5H1.5C1.5 3.5 0.5 3.5 0.5 2.5V1.5C0.5 1.5 0.5 0.5 1.5 0.5Z" fill="white"/>
<path d="M1.5 8.5H22.5C22.5 8.5 23.5 8.5 23.5 9.5V10.5C23.5 10.5 23.5 11.5 22.5 11.5H1.5C1.5 11.5 0.5 11.5 0.5 10.5V9.5C0.5 9.5 0.5 8.5 1.5 8.5Z" fill="white"/>
<path d="M1.5 16.5H22.5C22.5 16.5 23.5 16.5 23.5 17.5V18.5C23.5 18.5 23.5 19.5 22.5 19.5H1.5C1.5 19.5 0.5 19.5 0.5 18.5V17.5C0.5 17.5 0.5 16.5 1.5 16.5Z" fill="white"/>
</svg>
