<svg width="48" height="48" viewBox="0 0 48 48" fill="none" xmlns="http://www.w3.org/2000/svg">
<g clip-path="url(#clip0_71_248)">
<path d="M41.22 22.92C40.9967 22.7059 40.7267 22.5465 40.4313 22.4544C40.1359 22.3623 39.8232 22.34 39.5177 22.3892C39.2122 22.4385 38.9224 22.5579 38.6709 22.7381C38.4194 22.9184 38.2131 23.1545 38.0684 23.428C37.9236 23.7014 37.8442 24.0047 37.8366 24.314C37.8289 24.6234 37.893 24.9302 38.0241 25.2106C38.1551 25.4909 38.3493 25.7369 38.5915 25.9295C38.8338 26.122 39.1174 26.2557 39.42 26.32C42.44 27.9 44.16 29.86 44.16 31.7C44.16 35.36 37.86 38.92 29.52 39.98C29.1185 40.1496 28.7834 40.4457 28.5657 40.8233C28.3479 41.2009 28.2595 41.6393 28.3139 42.0717C28.3682 42.5042 28.5623 42.907 28.8667 43.219C29.1711 43.531 29.569 43.735 30 43.8C40.76 42.4 48 37.54 48 31.8C48 28.34 45.6 25.22 41.22 22.92Z" fill="black"/>
<path d="M20.84 37.76C20.7076 37.625 20.5383 37.5321 20.3532 37.4929C20.1682 37.4538 19.9757 37.4702 19.8 37.54C19.6258 37.6132 19.4765 37.7353 19.37 37.8914C19.2636 38.0475 19.2045 38.2311 19.2 38.42V39.74C19.2 40.08 18.96 40.06 18.84 40.04C9.52 38.94 3.84 35.02 3.84 31.7C3.84 29.86 5.56 27.9 8.58 26.32C8.89396 26.019 9.10124 25.6239 9.17045 25.1945C9.23965 24.7651 9.167 24.3249 8.9635 23.9405C8.76001 23.5561 8.43676 23.2486 8.04274 23.0644C7.64872 22.8803 7.20542 22.8296 6.78 22.92C2.4 25.22 0 28.34 0 31.7C0 37.7 7.74 42.66 18.72 43.9C18.8473 43.9 18.9694 43.9506 19.0594 44.0406C19.1494 44.1306 19.2 44.2527 19.2 44.38V46.1C19.2007 46.2924 19.2579 46.4803 19.3646 46.6403C19.4713 46.8003 19.6227 46.9254 19.8 47C20.1612 47.0383 20.5253 46.9613 20.84 46.78L24.68 42.94C24.7689 42.8525 24.8395 42.7482 24.8877 42.6332C24.9359 42.5182 24.9607 42.3947 24.9607 42.27C24.9607 42.1453 24.9359 42.0218 24.8877 41.9068C24.8395 41.7918 24.7689 41.6875 24.68 41.6L20.84 37.76Z" fill="black"/>
<path d="M24 0.980011C20.6917 0.9853 17.5205 2.30185 15.1812 4.64116C12.8418 6.98047 11.5253 10.1517 11.52 13.46C11.52 18.98 19.18 29.78 22.48 34.16C22.6544 34.3997 22.8831 34.5947 23.1472 34.7291C23.4114 34.8636 23.7036 34.9337 24 34.9337C24.2964 34.9337 24.5886 34.8636 24.8528 34.7291C25.1169 34.5947 25.3456 34.3997 25.52 34.16C28.82 29.78 36.48 18.98 36.48 13.46C36.4747 10.1517 35.1582 6.98047 32.8189 4.64116C30.4795 2.30185 27.3083 0.9853 24 0.980011ZM24 18.26C23.0507 18.26 22.1226 17.9785 21.3333 17.4511C20.5439 16.9236 19.9287 16.174 19.5654 15.2969C19.2021 14.4198 19.107 13.4547 19.2922 12.5236C19.4774 11.5925 19.9346 10.7372 20.6059 10.0659C21.2772 9.39461 22.1325 8.93745 23.0636 8.75224C23.9947 8.56703 24.9598 8.66209 25.8369 9.02539C26.714 9.38869 27.4636 10.0039 27.9911 10.7933C28.5185 11.5826 28.8 12.5107 28.8 13.46C28.8 14.733 28.2943 15.9539 27.3941 16.8541C26.4939 17.7543 25.273 18.26 24 18.26Z" fill="black"/>
</g>
<defs>
<clipPath id="clip0_71_248">
<rect width="48" height="48" fill="white"/>
</clipPath>
</defs>
</svg>
