<svg width="48" height="48" viewBox="0 0 48 48" fill="none" xmlns="http://www.w3.org/2000/svg">
<g clip-path="url(#clip0_71_257)">
<path d="M24 0C19.2533 0 14.6131 1.40758 10.6663 4.04473C6.71954 6.68188 3.64341 10.4302 1.8269 14.8156C0.0103989 19.201 -0.464881 24.0266 0.461164 28.6822C1.38721 33.3377 3.67299 37.6141 7.02945 40.9706C10.3859 44.327 14.6623 46.6128 19.3178 47.5388C23.9734 48.4649 28.799 47.9896 33.1844 46.1731C37.5698 44.3566 41.3181 41.2805 43.9553 37.3337C46.5924 33.3869 48 28.7468 48 24C48 17.6348 45.4714 11.5303 40.9706 7.02944C36.4697 2.52856 30.3652 0 24 0ZM24 44C20.0444 44 16.1776 42.827 12.8886 40.6294C9.59962 38.4318 7.03617 35.3082 5.52242 31.6537C4.00867 27.9991 3.6126 23.9778 4.38431 20.0982C5.15601 16.2186 7.06082 12.6549 9.85787 9.85786C12.6549 7.06081 16.2186 5.156 20.0982 4.38429C23.9778 3.61259 27.9992 4.00866 31.6537 5.52241C35.3082 7.03616 38.4318 9.59961 40.6294 12.8886C42.827 16.1776 44 20.0444 44 24C44 29.3043 41.8929 34.3914 38.1421 38.1421C34.3914 41.8929 29.3043 44 24 44Z" fill="black"/>
<path d="M34.26 31.62L25 23.12V13C25 12.4696 24.7893 11.9609 24.4142 11.5858C24.0391 11.2107 23.5304 11 23 11C22.4696 11 21.9609 11.2107 21.5858 11.5858C21.2107 11.9609 21 12.4696 21 13V24C20.9981 24.2776 21.0541 24.5526 21.1642 24.8074C21.2744 25.0622 21.4364 25.2912 21.64 25.48L31.64 34.56C31.8337 34.7398 32.0612 34.8795 32.3092 34.9708C32.5573 35.0622 32.8209 35.1035 33.085 35.0923C33.3491 35.0812 33.6084 35.0178 33.8478 34.9058C34.0873 34.7938 34.3021 34.6355 34.48 34.44C34.6507 34.2404 34.7805 34.0091 34.8618 33.7594C34.9432 33.5096 34.9745 33.2463 34.9541 32.9844C34.9337 32.7226 34.8618 32.4673 34.7428 32.2332C34.6237 31.9991 34.4596 31.7907 34.26 31.62Z" fill="black"/>
</g>
<defs>
<clipPath id="clip0_71_257">
<rect width="48" height="48" fill="white"/>
</clipPath>
</defs>
</svg>
