<svg width="61" height="61" viewBox="0 0 61 61" fill="none" xmlns="http://www.w3.org/2000/svg">
<path d="M30.5001 0C22.2167 0 21.178 0.0351405 17.9249 0.183512C14.6785 0.331611 12.4614 0.847278 10.5213 1.60112C8.51564 2.38057 6.81472 3.42352 5.11917 5.11908C3.42352 6.81463 2.38057 8.51573 1.60121 10.5214C0.847187 12.4614 0.331701 14.6785 0.183421 17.9249C0.0350497 21.178 0 22.2167 0 30.5001C0 38.7833 0.0350497 39.822 0.183421 43.0751C0.331701 46.3215 0.847187 48.5386 1.60121 50.4786C2.38066 52.4843 3.42362 54.1852 5.11917 55.8809C6.81481 57.5765 8.51564 58.6194 10.5213 59.3989C12.4614 60.1527 14.6785 60.6683 17.9249 60.8165C21.178 60.9649 22.2167 61 30.5001 61C38.7833 61 39.822 60.9649 43.0751 60.8165C46.3215 60.6684 48.5386 60.1527 50.4786 59.3989C52.4843 58.6194 54.1852 57.5765 55.8809 55.8809C57.5765 54.1852 58.6194 52.4843 59.3989 50.4786C60.1527 48.5386 60.6684 46.3215 60.8165 43.0751C60.9649 39.822 61 38.7833 61 30.5001C61 22.2167 60.9649 21.178 60.8165 17.9249C60.6684 14.6785 60.1527 12.4614 59.3989 10.5214C58.6194 8.51573 57.5765 6.81463 55.8809 5.11908C54.1852 3.42352 52.4843 2.38057 50.4786 1.60112C48.5386 0.847278 46.3215 0.331611 43.0751 0.183512C39.822 0.0351405 38.7833 0 30.5001 0ZM30.5001 5.49545C38.6438 5.49545 39.6085 5.5266 42.8246 5.67334C45.7984 5.80891 47.4133 6.30578 48.488 6.72347C49.9117 7.27682 50.9277 7.93768 51.9949 9.00497C53.0623 10.0723 53.7232 11.0883 54.2765 12.5119C54.6942 13.5867 55.1911 15.2017 55.3267 18.1754C55.4734 21.3915 55.5045 22.3562 55.5045 30.5C55.5045 38.6438 55.4734 39.6085 55.3267 42.8246C55.1911 45.7984 54.6942 47.4133 54.2765 48.488C53.7232 49.9117 53.0623 50.9277 51.9949 51.9949C50.9277 53.0623 49.9117 53.7232 48.4881 54.2765C47.4133 54.6942 45.7983 55.1911 42.8246 55.3267C39.609 55.4734 38.6444 55.5045 30.5 55.5045C22.3556 55.5045 21.3912 55.4734 18.1754 55.3266C15.2016 55.1911 13.5867 54.6942 12.512 54.2765C11.0883 53.7232 10.0723 53.0623 9.00506 51.9949C7.93777 50.9277 7.27682 49.9117 6.72347 48.4881C6.30578 47.4133 5.809 45.7983 5.67334 42.8246C5.5266 39.6085 5.49545 38.6438 5.49545 30.5C5.49545 22.3562 5.5266 21.3915 5.67334 18.1754C5.809 15.2016 6.30578 13.5867 6.72347 12.512C7.27682 11.0883 7.93777 10.0723 9.00497 9.00506C10.0723 7.93768 11.0883 7.27682 12.5119 6.72347C13.5867 6.30578 15.2017 5.80891 18.1754 5.67334C21.3915 5.5266 22.3562 5.49545 30.5 5.49545" fill="white"/>
<path d="M30.5001 40.6668C24.885 40.6668 20.3333 36.1151 20.3333 30.5002C20.3333 24.8852 24.885 20.3334 30.5001 20.3334C36.1149 20.3334 40.6667 24.8852 40.6667 30.5002C40.6667 36.1151 36.1149 40.6668 30.5001 40.6668ZM30.5001 14.838C21.85 14.838 14.8378 21.8501 14.8378 30.5002C14.8378 39.1501 21.85 46.1623 30.5001 46.1623C39.15 46.1623 46.1621 39.1501 46.1621 30.5002C46.1621 21.8501 39.15 14.838 30.5001 14.838ZM50.441 14.2191C50.441 16.2406 48.8023 17.8791 46.781 17.8791C44.7597 17.8791 43.121 16.2406 43.121 14.2191C43.121 12.1978 44.7597 10.5591 46.781 10.5591C48.8023 10.5591 50.441 12.1978 50.441 14.2191Z" fill="white"/>
</svg>
