<svg width="48" height="48" viewBox="0 0 48 48" fill="none" xmlns="http://www.w3.org/2000/svg">
<path d="M45.34 34L40.44 29.1C39.9186 28.5678 39.2962 28.1451 38.6094 27.8565C37.9225 27.5678 37.185 27.4192 36.44 27.4192C35.695 27.4192 34.9574 27.5678 34.2706 27.8565C33.5838 28.1451 32.9614 28.5678 32.44 29.1L31.46 30.08C26.5243 25.9611 21.9662 21.4096 17.84 16.48L18.84 15.48C19.9001 14.4187 20.4955 12.98 20.4955 11.48C20.4955 9.97996 19.9001 8.54127 18.84 7.47999L14 2.63999C12.9287 1.59905 11.4937 1.01674 9.99999 1.01674C8.50624 1.01674 7.07132 1.59905 5.99999 2.63999L3.31999 5.31999C2.03552 6.62153 1.23571 8.32382 1.05375 10.1434C0.871798 11.9629 1.31869 13.7899 2.31999 15.32C10.3124 27.3525 20.6275 37.6675 32.66 45.66C34.1901 46.6613 36.0171 47.1082 37.8366 46.9262C39.6562 46.7443 41.3585 45.9445 42.66 44.66L45.34 42C45.8722 41.4786 46.2949 40.8562 46.5835 40.1694C46.8721 39.4825 47.0208 38.745 47.0208 38C47.0208 37.255 46.8721 36.5174 46.5835 35.8306C46.2949 35.1437 45.8722 34.5214 45.34 34Z" fill="black"/>
</svg>
